<svg xmlns="http://www.w3.org/2000/svg" viewBox="-70 -70 1040 1040" width="900" height="900">
  <style>
    .segment-label { font-family: 'Century Gothic', 'Open Sans', Arial, sans-serif; font-weight: bold; font-size: 24px; fill: white; dominant-baseline: middle; letter-spacing: 0.02em; }
    .facet-label { font-family: 'Open Sans', Arial, sans-serif; font-size: 13px; font-style: italic; fill: #555555; }
    .center-label { font-family: 'Century Gothic', 'Open Sans', Arial, sans-serif; font-weight: bold; font-size: 17px; fill: #ffffff; text-anchor: middle; }
    .ring-label { font-family: 'Open Sans', Arial, sans-serif; font-size: 10px; fill: #666; }
  </style>
  <g class="segment-backgrounds"><path d="M 456.36146351128735 45.04996384492745 A 405 405 0 0 1 582.523249086537 67.2956905762 L 489.2661478774925 336.60613054109626 A 120 120 0 0 0 451.8848780774185 330.01480410220074 Z" fill="#702082" opacity="0.12" />
<path d="M 594.4788897244482 71.64718789998307 A 405 405 0 0 1 705.4237020096709 135.70120513804892 L 525.6810968917544 356.8744311520145 A 120 120 0 0 0 492.808559918355 337.89546308147646 Z" fill="#702082" opacity="0.12" />
<path d="M 715.1700295555227 143.87934498710598 A 405 405 0 0 1 797.516286818076 242.01579291644114 L 552.9677886868374 388.3750497530196 A 120 120 0 0 0 528.5688976460808 359.29758369988326 Z" fill="#702082" opacity="0.12" />
<path d="M 803.8777503293634 253.03417092848633 A 405 405 0 0 1 854.9500361550726 443.63853648871265 L 569.9851958977993 448.1151219225815 A 120 120 0 0 0 554.8526667642558 391.63975434918115 Z" fill="#CC3366" opacity="0.12" />
<path d="M 854.9500361550726 456.36146351128735 A 405 405 0 0 1 803.8777503293634 646.9658290715137 L 554.8526667642558 508.36024565081885 A 120 120 0 0 0 569.9851958977993 451.8848780774185 Z" fill="#CC3366" opacity="0.12" />
<path d="M 797.516286818076 657.9842070835589 A 405 405 0 0 1 715.1700295555227 756.1206550128941 L 528.5688976460808 540.7024163001167 A 120 120 0 0 0 552.9677886868374 511.6249502469804 Z" fill="#E5A220" opacity="0.12" />
<path d="M 705.4237020096709 764.2987948619511 A 405 405 0 0 1 594.4788897244482 828.352812100017 L 492.808559918355 562.1045369185235 A 120 120 0 0 0 525.6810968917544 543.1255688479855 Z" fill="#E5A220" opacity="0.12" />
<path d="M 582.523249086537 832.7043094237999 A 405 405 0 0 1 456.36146351128735 854.9500361550726 L 451.8848780774185 569.9851958977993 A 120 120 0 0 0 489.2661478774925 563.3938694589037 Z" fill="#E5A220" opacity="0.12" />
<path d="M 443.6385364887126 854.9500361550726 A 405 405 0 0 1 253.0341709284864 803.8777503293634 L 391.63975434918115 554.8526667642559 A 120 120 0 0 0 448.1151219225815 569.9851958977993 Z" fill="#8CB82B" opacity="0.12" />
<path d="M 242.01579291644106 797.516286818076 A 405 405 0 0 1 102.48371318192403 657.984207083559 L 347.0322113131627 511.62495024698046 A 120 120 0 0 0 388.37504975301954 552.9677886868374 Z" fill="#8CB82B" opacity="0.12" />
<path d="M 96.12224967063662 646.9658290715137 A 405 405 0 0 1 45.04996384492745 456.3614635112874 L 330.01480410220074 451.8848780774185 A 120 120 0 0 0 345.14733323574416 508.36024565081885 Z" fill="#00A3AD" opacity="0.12" />
<path d="M 45.04996384492745 443.6385364887127 A 405 405 0 0 1 96.12224967063662 253.03417092848625 L 345.1473332357442 391.6397543491811 A 120 120 0 0 0 330.01480410220074 448.1151219225815 Z" fill="#00A3AD" opacity="0.12" />
<path d="M 102.48371318192397 242.0157929164411 A 405 405 0 0 1 242.01579291644097 102.48371318192403 L 388.37504975301954 347.0322113131627 A 120 120 0 0 0 347.03221131316263 388.3750497530196 Z" fill="#4A90E2" opacity="0.12" />
<path d="M 253.03417092848645 96.1222496706365 A 405 405 0 0 1 443.6385364887126 45.04996384492745 L 448.1151219225815 330.01480410220074 A 120 120 0 0 0 391.6397543491812 345.14733323574416 Z" fill="#4A90E2" opacity="0.12" /></g>
<g class="score-fills"><path d="M 454.5708293377398 159.03589994783675 A 291 291 0 0 1 545.2204086029192 175.01986656215854 L 489.2661478774925 336.60613054109626 A 120 120 0 0 0 451.8848780774185 330.01480410220074 Z" fill="#702082" opacity="0.34" />
<path d="M 574.1448237632296 124.89684293628176 A 348 348 0 0 1 669.4751809860876 179.93585034084202 L 525.6810968917544 356.8744311520145 A 120 120 0 0 0 492.808559918355 337.89546308147646 Z" fill="#702082" opacity="0.34" />
<path d="M 603.2093504098575 273.13028821477235 A 234 234 0 0 1 650.7871879393329 329.8313470183882 L 552.9677886868374 388.3750497530196 A 120 120 0 0 0 528.5688976460808 359.29758369988326 Z" fill="#702082" opacity="0.34" />
<path d="M 754.0727336163419 280.7552876126253 A 348 348 0 0 1 797.9570681036179 444.53385357548643 L 569.9851958977993 448.1151219225815 A 120 120 0 0 0 554.8526667642558 391.63975434918115 Z" fill="#CC3366" opacity="0.34" />
<path d="M 854.9500361550726 456.36146351128735 A 405 405 0 0 1 803.8777503293634 646.9658290715137 L 554.8526667642558 508.36024565081885 A 120 120 0 0 0 569.9851958977993 451.8848780774185 Z" fill="#CC3366" opacity="0.34" />
<path d="M 699.6968875655806 599.4405043489274 A 291 291 0 0 1 640.5295767917459 669.953359527783 L 528.5688976460808 540.7024163001167 A 120 120 0 0 0 552.9677886868374 511.6249502469804 Z" fill="#E5A220" opacity="0.34" />
<path d="M 669.4751809860876 720.0641496591579 A 348 348 0 0 1 574.1448237632296 775.1031570637183 L 492.808559918355 562.1045369185235 A 120 120 0 0 0 525.6810968917544 543.1255688479855 Z" fill="#E5A220" opacity="0.34" />
<path d="M 545.2204086029192 724.9801334378415 A 291 291 0 0 1 454.5708293377398 740.9641000521633 L 451.8848780774185 569.9851958977993 A 120 120 0 0 0 489.2661478774925 563.3938694589037 Z" fill="#E5A220" opacity="0.34" />
<path d="M 444.5338535754864 797.9570681036179 A 348 348 0 0 1 280.75528761262535 754.0727336163419 L 391.63975434918115 554.8526667642559 A 120 120 0 0 0 448.1151219225815 569.9851958977993 Z" fill="#8CB82B" opacity="0.34" />
<path d="M 242.01579291644106 797.516286818076 A 405 405 0 0 1 102.48371318192403 657.984207083559 L 347.0322113131627 511.62495024698046 A 120 120 0 0 0 388.37504975301954 552.9677886868374 Z" fill="#8CB82B" opacity="0.34" />
<path d="M 145.9272663836581 619.2447123873746 A 348 348 0 0 1 102.04293189638213 455.4661464245136 L 330.01480410220074 451.8848780774185 A 120 120 0 0 0 345.14733323574416 508.36024565081885 Z" fill="#00A3AD" opacity="0.34" />
<path d="M 159.03589994783675 445.4291706622602 A 291 291 0 0 1 195.73228309667965 308.4764042967642 L 345.1473332357442 391.6397543491811 A 120 120 0 0 0 330.01480410220074 448.1151219225815 Z" fill="#00A3AD" opacity="0.34" />
<path d="M 102.48371318192397 242.0157929164411 A 405 405 0 0 1 242.01579291644097 102.48371318192403 L 388.37504975301954 347.0322113131627 A 120 120 0 0 0 347.03221131316263 388.3750497530196 Z" fill="#4A90E2" opacity="0.34" />
<path d="M 280.7552876126254 145.92726638365804 A 348 348 0 0 1 444.5338535754864 102.04293189638213 L 448.1151219225815 330.01480410220074 A 120 120 0 0 0 391.6397543491812 345.14733323574416 Z" fill="#4A90E2" opacity="0.34" /></g>
<g class="segment-dividers"><line x1="450" y1="330" x2="450" y2="45" stroke="#ffffff" stroke-width="3" />
<line x1="553.9230484541326" y1="390" x2="800.7402885326976" y2="247.50000000000003" stroke="#ffffff" stroke-width="3" />
<line x1="553.9230484541326" y1="510" x2="800.7402885326976" y2="652.5" stroke="#ffffff" stroke-width="3" />
<line x1="450" y1="570" x2="450" y2="855" stroke="#ffffff" stroke-width="3" />
<line x1="346.07695154586736" y1="510" x2="99.25971146730234" y2="652.5" stroke="#ffffff" stroke-width="3" />
<line x1="346.07695154586736" y1="390" x2="99.2597114673024" y2="247.49999999999994" stroke="#ffffff" stroke-width="3" /></g>
<g class="facet-dividers"><line x1="491.04241719908026" y1="337.236885505691" x2="588.5181580468959" y2="69.42448858170712" stroke="rgba(255,255,255,0.7)" stroke-width="1.4" />
<line x1="527.1345131623847" y1="358.07466682572266" x2="710.3289819230484" y2="139.7520005368139" stroke="rgba(255,255,255,0.7)" stroke-width="1.4" />
<line x1="570" y1="450" x2="855" y2="450" stroke="rgba(255,255,255,0.7)" stroke-width="1.4" />
<line x1="527.1345131623847" y1="541.9253331742774" x2="710.3289819230484" y2="760.247999463186" stroke="rgba(255,255,255,0.7)" stroke-width="1.4" />
<line x1="491.04241719908026" y1="562.763114494309" x2="588.5181580468959" y2="830.5755114182929" stroke="rgba(255,255,255,0.7)" stroke-width="1.4" />
<line x1="390" y1="553.9230484541326" x2="247.50000000000009" y2="800.7402885326976" stroke="rgba(255,255,255,0.7)" stroke-width="1.4" />
<line x1="330" y1="450" x2="45" y2="450.00000000000006" stroke="rgba(255,255,255,0.7)" stroke-width="1.4" />
<line x1="389.99999999999994" y1="346.07695154586736" x2="247.49999999999983" y2="99.2597114673024" stroke="rgba(255,255,255,0.7)" stroke-width="1.4" /></g>
<g class="center-hub"><circle cx="450" cy="450" r="120" fill="#702082" />
<text x="450" y="435.6" class="center-label" style="font-size: 24px" dominant-baseline="middle">Team</text>
<text x="450" y="464.40000000000003" class="center-label" style="font-size: 24px" dominant-baseline="middle">Effectiveness</text></g>
<g class="facet-labels"><text x="518.5910301784376" y="61.00093756017782" style="font-family: 'Open Sans', Arial, sans-serif; font-size: 13px; font-weight: 700; letter-spacing: 0.04em; fill: #555555;" text-anchor="end" dominant-baseline="middle" transform="rotate(-80, 518.5910301784376, 61.00093756017782)">WORKLOAD</text>
<text x="647.5" y="107.91996550514676" style="font-family: 'Open Sans', Arial, sans-serif; font-size: 13px; font-weight: 700; letter-spacing: 0.04em; fill: #555555;" text-anchor="end" dominant-baseline="middle" transform="rotate(-60, 647.5, 107.91996550514676)">PACE</text>
<text x="752.5875550319963" y="196.098894173817" style="font-family: 'Open Sans', Arial, sans-serif; font-size: 13px; font-weight: 700; letter-spacing: 0.04em; fill: #555555;" text-anchor="end" dominant-baseline="middle" transform="rotate(-40, 752.5875550319963, 196.098894173817)"><tspan x="752.5875550319963" dy="-0.6em">PRESSURE &amp;</tspan><tspan x="752.5875550319963" dy="1.2em">RECOVERY</tspan></text>
<text x="831.5407013841821" y="347.7664771845043" style="font-family: 'Open Sans', Arial, sans-serif; font-size: 13px; font-weight: 700; letter-spacing: 0.04em; fill: #555555;" text-anchor="end" dominant-baseline="middle" transform="rotate(-15, 831.5407013841821, 347.7664771845043)"><tspan x="831.5407013841821" dy="-0.6em">DIRECTION &amp;</tspan><tspan x="831.5407013841821" dy="1.2em">PURPOSE</tspan></text>
<text x="831.5407013841821" y="552.2335228154957" style="font-family: 'Open Sans', Arial, sans-serif; font-size: 13px; font-weight: 700; letter-spacing: 0.04em; fill: #555555;" text-anchor="end" dominant-baseline="middle" transform="rotate(15, 831.5407013841821, 552.2335228154957)">ROLES</text>
<text x="752.5875550319963" y="703.901105826183" style="font-family: 'Open Sans', Arial, sans-serif; font-size: 13px; font-weight: 700; letter-spacing: 0.04em; fill: #555555;" text-anchor="end" dominant-baseline="middle" transform="rotate(40, 752.5875550319963, 703.901105826183)">SKILLS</text>
<text x="647.5" y="792.0800344948532" style="font-family: 'Open Sans', Arial, sans-serif; font-size: 13px; font-weight: 700; letter-spacing: 0.04em; fill: #555555;" text-anchor="end" dominant-baseline="middle" transform="rotate(60, 647.5, 792.0800344948532)">RESOURCES</text>
<text x="518.5910301784376" y="838.9990624398222" style="font-family: 'Open Sans', Arial, sans-serif; font-size: 13px; font-weight: 700; letter-spacing: 0.04em; fill: #555555;" text-anchor="end" dominant-baseline="middle" transform="rotate(80, 518.5910301784376, 838.9990624398222)">TOOLS</text>
<text x="347.76647718450425" y="831.5407013841821" style="font-family: 'Open Sans', Arial, sans-serif; font-size: 13px; font-weight: 700; letter-spacing: 0.04em; fill: #555555;" text-anchor="start" dominant-baseline="middle" transform="rotate(285, 347.76647718450425, 831.5407013841821)">SUPPORT</text>
<text x="170.69282143131375" y="729.3071785686864" style="font-family: 'Open Sans', Arial, sans-serif; font-size: 13px; font-weight: 700; letter-spacing: 0.04em; fill: #555555;" text-anchor="start" dominant-baseline="middle" transform="rotate(315, 170.69282143131375, 729.3071785686864)">AUTONOMY</text>
<text x="68.45929861581806" y="552.2335228154958" style="font-family: 'Open Sans', Arial, sans-serif; font-size: 13px; font-weight: 700; letter-spacing: 0.04em; fill: #555555;" text-anchor="start" dominant-baseline="middle" transform="rotate(345, 68.45929861581806, 552.2335228154958)">QUALITY</text>
<text x="68.459298615818" y="347.7664771845045" style="font-family: 'Open Sans', Arial, sans-serif; font-size: 13px; font-weight: 700; letter-spacing: 0.04em; fill: #555555;" text-anchor="start" dominant-baseline="middle" transform="rotate(375, 68.459298615818, 347.7664771845045)">DELIVERY</text>
<text x="170.6928214313137" y="170.69282143131375" style="font-family: 'Open Sans', Arial, sans-serif; font-size: 13px; font-weight: 700; letter-spacing: 0.04em; fill: #555555;" text-anchor="start" dominant-baseline="middle" transform="rotate(405, 170.6928214313137, 170.69282143131375)">MORALE</text>
<text x="347.76647718450437" y="68.459298615818" style="font-family: 'Open Sans', Arial, sans-serif; font-size: 13px; font-weight: 700; letter-spacing: 0.04em; fill: #555555;" text-anchor="start" dominant-baseline="middle" transform="rotate(435, 347.76647718450437, 68.459298615818)">COHESION</text></g>
<g class="facet-figures"><text x="472.7479112743679" y="320.99018435540074" style="font-family: 'Open Sans', Arial, sans-serif; font-size: 11px; font-weight: normal; fill: #555555;" text-anchor="middle" dominant-baseline="middle" transform="rotate(-80, 472.7479112743679, 320.99018435540074)">60%</text>
<text x="515.5" y="336.5506721042385" style="font-family: 'Open Sans', Arial, sans-serif; font-size: 11px; font-weight: normal; fill: #555555;" text-anchor="middle" dominant-baseline="middle" transform="rotate(-60, 515.5, 336.5506721042385)">80%</text>
<text x="550.3518220485861" y="365.79482313106337" style="font-family: 'Open Sans', Arial, sans-serif; font-size: 11px; font-weight: normal; fill: #555555;" text-anchor="middle" dominant-baseline="middle" transform="rotate(-40, 550.3518220485861, 365.79482313106337)">40%</text>
<text x="576.536283243868" y="416.0947050915698" style="font-family: 'Open Sans', Arial, sans-serif; font-size: 11px; font-weight: normal; fill: #555555;" text-anchor="middle" dominant-baseline="middle" transform="rotate(-15, 576.536283243868, 416.0947050915698)">80%</text>
<text x="576.536283243868" y="483.9052949084302" style="font-family: 'Open Sans', Arial, sans-serif; font-size: 11px; font-weight: normal; fill: #555555;" text-anchor="middle" dominant-baseline="middle" transform="rotate(15, 576.536283243868, 483.9052949084302)">100%</text>
<text x="550.3518220485861" y="534.2051768689366" style="font-family: 'Open Sans', Arial, sans-serif; font-size: 11px; font-weight: normal; fill: #555555;" text-anchor="middle" dominant-baseline="middle" transform="rotate(40, 550.3518220485861, 534.2051768689366)">60%</text>
<text x="515.5" y="563.4493278957615" style="font-family: 'Open Sans', Arial, sans-serif; font-size: 11px; font-weight: normal; fill: #555555;" text-anchor="middle" dominant-baseline="middle" transform="rotate(60, 515.5, 563.4493278957615)">80%</text>
<text x="472.7479112743679" y="579.0098156445993" style="font-family: 'Open Sans', Arial, sans-serif; font-size: 11px; font-weight: normal; fill: #555555;" text-anchor="middle" dominant-baseline="middle" transform="rotate(80, 472.7479112743679, 579.0098156445993)">60%</text>
<text x="416.0947050915698" y="576.536283243868" style="font-family: 'Open Sans', Arial, sans-serif; font-size: 11px; font-weight: normal; fill: #555555;" text-anchor="middle" dominant-baseline="middle" transform="rotate(285, 416.0947050915698, 576.536283243868)">80%</text>
<text x="357.36901166456227" y="542.6309883354377" style="font-family: 'Open Sans', Arial, sans-serif; font-size: 11px; font-weight: normal; fill: #555555;" text-anchor="middle" dominant-baseline="middle" transform="rotate(315, 357.36901166456227, 542.6309883354377)">100%</text>
<text x="323.46371675613204" y="483.9052949084303" style="font-family: 'Open Sans', Arial, sans-serif; font-size: 11px; font-weight: normal; fill: #555555;" text-anchor="middle" dominant-baseline="middle" transform="rotate(345, 323.46371675613204, 483.9052949084303)">80%</text>
<text x="323.46371675613204" y="416.09470509156984" style="font-family: 'Open Sans', Arial, sans-serif; font-size: 11px; font-weight: normal; fill: #555555;" text-anchor="middle" dominant-baseline="middle" transform="rotate(375, 323.46371675613204, 416.09470509156984)">60%</text>
<text x="357.36901166456227" y="357.36901166456227" style="font-family: 'Open Sans', Arial, sans-serif; font-size: 11px; font-weight: normal; fill: #555555;" text-anchor="middle" dominant-baseline="middle" transform="rotate(405, 357.36901166456227, 357.36901166456227)">100%</text>
<text x="416.0947050915698" y="323.46371675613204" style="font-family: 'Open Sans', Arial, sans-serif; font-size: 11px; font-weight: normal; fill: #555555;" text-anchor="middle" dominant-baseline="middle" transform="rotate(435, 416.0947050915698, 323.46371675613204)">80%</text></g>
<defs><path id="segment-path-0-0" d="M 473.8105573084648 -4.332498613801874 A 454.95599999999996 454.95599999999996 0 0 1 831.5582069101783 202.21320318570335" fill="none" />
<path id="segment-path-0-1" d="M 472.6172975061257 18.436254778602404 A 432.156 432.156 0 0 1 812.4365179610227 214.63097318404596" fill="none" />
<path id="segment-path-1-0" d="M 855.368764218643 243.45429820049478 A 454.95599999999996 454.95599999999996 0 0 1 855.368764218643 656.5457017995052" fill="none" />
<path id="segment-path-1-1" d="M 835.0538154671483 253.80528159455642 A 432.156 432.156 0 0 1 835.0538154671483 646.1947184054436" fill="none" />
<path id="segment-path-2-0" d="M 472.93131324358336 887.5555224299251 A 438.156 438.156 0 0 0 817.4685413686952 688.6368610260442" fill="none" />
<path id="segment-path-2-1" d="M 474.1245730459225 910.3242758223294 A 460.95599999999996 460.95599999999996 0 0 0 836.5902303178509 701.0546310243868" fill="none" />
<path id="segment-path-3-0" d="M 82.5314586313047 688.6368610260441 A 438.156 438.156 0 0 0 427.0686867564168 887.5555224299251" fill="none" />
<path id="segment-path-3-1" d="M 63.40976968214909 701.0546310243867 A 460.95599999999996 460.95599999999996 0 0 0 425.8754269540777 910.3242758223294" fill="none" />
<path id="segment-path-4-0" d="M 44.63123578135696 656.5457017995052 A 454.95599999999996 454.95599999999996 0 0 1 44.63123578135685 243.454298200495" fill="none" />
<path id="segment-path-4-1" d="M 64.9461845328517 646.1947184054436 A 432.156 432.156 0 0 1 64.94618453285159 253.80528159455665" fill="none" />
<path id="segment-path-5-0" d="M 68.44179308982172 202.21320318570335 A 454.95599999999996 454.95599999999996 0 0 1 426.189442691535 -4.332498613801874" fill="none" />
<path id="segment-path-5-1" d="M 87.56348203897733 214.63097318404596 A 432.156 432.156 0 0 1 427.38270249387415 18.436254778602404" fill="none" /></defs>
<circle cx="450" cy="450" r="405" fill="none" stroke="#ffffff" stroke-width="3" />
<g class="segment-label-backgrounds"><path d="M 450.00000000000006 -36.611999999999966 A 486.61199999999997 486.61199999999997 0 0 1 871.4183537863532 206.69400000000005 L 802.0393266383744 246.75000000000003 A 406.5 406.5 0 0 0 450 43.5 Z" fill="#702082" />
<path d="M 871.4183537863532 206.69400000000005 A 486.61199999999997 486.61199999999997 0 0 1 871.4183537863532 693.3059999999999 L 802.0393266383744 653.25 A 406.5 406.5 0 0 0 802.0393266383744 246.75000000000003 Z" fill="#CC3366" />
<path d="M 871.4183537863532 693.3059999999999 A 486.61199999999997 486.61199999999997 0 0 1 450.00000000000006 936.612 L 450 856.5 A 406.5 406.5 0 0 0 802.0393266383744 653.25 Z" fill="#E5A220" />
<path d="M 450.00000000000006 936.612 A 486.61199999999997 486.61199999999997 0 0 1 28.581646213646763 693.3059999999999 L 97.96067336162565 653.25 A 406.5 406.5 0 0 0 450 856.5 Z" fill="#8CB82B" />
<path d="M 28.581646213646763 693.3059999999999 A 486.61199999999997 486.61199999999997 0 0 1 28.58164621364682 206.69399999999996 L 97.96067336162571 246.74999999999994 A 406.5 406.5 0 0 0 97.96067336162565 653.25 Z" fill="#00A3AD" />
<path d="M 28.58164621364682 206.69399999999996 A 486.61199999999997 486.61199999999997 0 0 1 449.9999999999999 -36.611999999999966 L 449.99999999999994 43.5 A 406.5 406.5 0 0 0 97.96067336162571 246.74999999999994 Z" fill="#4A90E2" /></g>
<g class="segment-label-dividers"><line x1="450" y1="43.5" x2="450.00000000000006" y2="-36.611999999999966" stroke="#ffffff" stroke-width="3" />
<line x1="802.0393266383744" y1="246.75000000000003" x2="871.4183537863532" y2="206.69400000000005" stroke="#ffffff" stroke-width="3" />
<line x1="802.0393266383744" y1="653.25" x2="871.4183537863532" y2="693.3059999999999" stroke="#ffffff" stroke-width="3" />
<line x1="450" y1="856.5" x2="450.00000000000006" y2="936.612" stroke="#ffffff" stroke-width="3" />
<line x1="97.96067336162565" y1="653.25" x2="28.581646213646763" y2="693.3059999999999" stroke="#ffffff" stroke-width="3" />
<line x1="97.96067336162571" y1="246.74999999999994" x2="28.58164621364682" y2="206.69399999999996" stroke="#ffffff" stroke-width="3" /></g>
<g class="segment-labels"><text class="segment-label" fill="white" style="font-size: 24px"><textPath href="#segment-path-0-0" startOffset="50%" text-anchor="middle">Demands</textPath></text>
<text fill="#ffffff" style="font-family: 'Open Sans', Arial, sans-serif; font-weight: normal; font-size: 14px; dominant-baseline: middle;"><textPath href="#segment-path-0-1" startOffset="50%" text-anchor="middle">58%</textPath></text>
<text class="segment-label" fill="white" style="font-size: 24px"><textPath href="#segment-path-1-0" startOffset="50%" text-anchor="middle">Essentials</textPath></text>
<text fill="#ffffff" style="font-family: 'Open Sans', Arial, sans-serif; font-weight: normal; font-size: 14px; dominant-baseline: middle;"><textPath href="#segment-path-1-1" startOffset="50%" text-anchor="middle">78%</textPath></text>
<text class="segment-label" fill="white" style="font-size: 24px"><textPath href="#segment-path-2-0" startOffset="50%" text-anchor="middle">Capability</textPath></text>
<text fill="#ffffff" style="font-family: 'Open Sans', Arial, sans-serif; font-weight: normal; font-size: 14px; dominant-baseline: middle;"><textPath href="#segment-path-2-1" startOffset="50%" text-anchor="middle">62%</textPath></text>
<text class="segment-label" fill="white" style="font-size: 24px"><textPath href="#segment-path-3-0" startOffset="50%" text-anchor="middle">Enablers</textPath></text>
<text fill="#ffffff" style="font-family: 'Open Sans', Arial, sans-serif; font-weight: normal; font-size: 14px; dominant-baseline: middle;"><textPath href="#segment-path-3-1" startOffset="50%" text-anchor="middle">82%</textPath></text>
<text class="segment-label" fill="white" style="font-size: 24px"><textPath href="#segment-path-4-0" startOffset="50%" text-anchor="middle">Task Output</textPath></text>
<text fill="#ffffff" style="font-family: 'Open Sans', Arial, sans-serif; font-weight: normal; font-size: 14px; dominant-baseline: middle;"><textPath href="#segment-path-4-1" startOffset="50%" text-anchor="middle">72%</textPath></text>
<text class="segment-label" fill="white" style="font-size: 24px"><textPath href="#segment-path-5-0" startOffset="50%" text-anchor="middle">Team Vitality</textPath></text>
<text fill="#ffffff" style="font-family: 'Open Sans', Arial, sans-serif; font-weight: normal; font-size: 14px; dominant-baseline: middle;"><textPath href="#segment-path-5-1" startOffset="50%" text-anchor="middle">84%</textPath></text></g>
<g class="rings"><circle cx="450" cy="450" r="177" fill="none" stroke="#ffffff" stroke-width="1" stroke-dasharray="4,4" />
<circle cx="450" cy="450" r="234" fill="none" stroke="#ffffff" stroke-width="1" stroke-dasharray="4,4" />
<circle cx="450" cy="450" r="291" fill="none" stroke="#ffffff" stroke-width="1" stroke-dasharray="4,4" />
<circle cx="450" cy="450" r="348" fill="none" stroke="#ffffff" stroke-width="1" stroke-dasharray="4,4" />
<circle cx="450" cy="450" r="405" fill="none" stroke="#ffffff" stroke-width="1" stroke-dasharray="4,4" /></g>
</svg>